# xmcd
#
# Track frame offsets: 
#        150
#        10142
#        21710
#        31005
#        40091
#        55042
#        65046
#        77364
#        91370
#        104602
#        119113
#        127340
#        138945
#        149097
#        161989
#        172291
#        184126
#
# Disc length: 2556 seconds
#
# Revision: 0
# Processed by: cddbd v1.4PL0 Copyright (c) Steve Scherf et al.
# Submitted via: ExactAudioCopy v0.90a11
#
DISCID=0209fa11
DTITLE=Good Pants - All Talk, No Pants
DYEAR=1900
DGENRE=
TTITLE0=Duelling Banjos
TTITLE1=Shady Grove
TTITLE2=I Like Likker
TTITLE3=Grandma's Feather Bed
TTITLE4=It Takes No Time
TTITLE5=Rueben's Train
TTITLE6=Don't Take Your Guns To Town
TTITLE7=Bitter Creek
TTITLE8=Oozlin Daddy Blues
TTITLE9=Windy Mountain
TTITLE10=Hey Joe
TTITLE11=One Last Match
TTITLE12=Naughty Little Poem
TTITLE13=Blues Stay Away from me
TTITLE14=The Girl I Left Behind Me
TTITLE15=The Happy Wanderer
TTITLE16=The Arkansas Traveller
EXTD=
EXTT0=
EXTT1=
EXTT2=
EXTT3=
EXTT4=
EXTT5=
EXTT6=
EXTT7=
EXTT8=
EXTT9=
EXTT10=
EXTT11=
EXTT12=
EXTT13=
EXTT14=
EXTT15=
EXTT16=
PLAYORDER=
